<?xml version="1.0" standalone="no"?>
<!DOCTYPE svg PUBLIC "-//W3C//DTD SVG 20010904//EN"
 "http://www.w3.org/TR/2001/REC-SVG-20010904/DTD/svg10.dtd">
<svg version="1.0" xmlns="http://www.w3.org/2000/svg"
 width="647.000000pt" height="412.000000pt" viewBox="0 0 647.000000 412.000000"
 preserveAspectRatio="xMidYMid meet">

<g transform="translate(0.000000,412.000000) scale(0.100000,-0.100000)"
fill="#000000" stroke="none">
<path d="M950 3740 c-23 -5 -27 -8 -13 -9 22 -1 23 -4 22 -128 0 -140 -10
-173 -53 -173 -30 0 -36 16 -36 88 0 74 9 87 51 79 32 -6 33 -6 14 9 -25 19
-62 11 -95 -22 -35 -34 -35 -102 -1 -138 33 -35 55 -40 91 -22 17 8 30 10 30
5 0 -5 18 -9 40 -9 22 0 40 5 40 10 0 6 -6 9 -12 8 -10 -2 -14 35 -16 155 -2
116 -6 157 -15 156 -6 -1 -28 -5 -47 -9z"/>
<path d="M213 3733 l27 -4 0 -154 c0 -128 -3 -156 -16 -170 -25 -25 -49 -15
-49 20 0 23 -5 30 -19 30 -10 0 -24 -8 -30 -18 -9 -15 -7 -22 13 -38 33 -27
93 -25 128 5 l28 24 3 151 3 150 27 4 c15 2 -11 4 -58 4 -47 0 -73 -2 -57 -4z"/>
<path d="M454 3610 c-65 -26 -83 -109 -35 -162 24 -27 36 -33 71 -33 104 0
138 145 45 190 -37 17 -50 18 -81 5z m71 -95 c0 -76 -1 -80 -23 -83 -39 -6
-52 15 -52 78 0 80 6 92 44 88 l31 -3 0 -80z"/>
<path d="M1416 3599 c-21 -17 -26 -18 -26 -5 0 12 -10 16 -42 15 -24 -1 -35
-3 -25 -6 16 -4 17 -15 15 -86 -2 -59 -6 -81 -15 -79 -7 1 -13 -2 -13 -8 0 -6
26 -10 58 -10 49 1 55 2 40 14 -28 21 -25 107 5 142 16 18 29 25 41 21 14 -6
16 -19 14 -84 -2 -56 -7 -77 -15 -75 -7 1 -13 -2 -13 -8 0 -6 27 -10 61 -10
36 0 58 4 54 10 -3 5 -12 7 -20 3 -12 -4 -15 7 -15 60 0 76 -13 113 -44 121
-30 8 -31 8 -60 -15z"/>
<path d="M633 3603 c14 -4 17 -17 17 -90 0 -72 -2 -84 -15 -79 -8 3 -15 1 -15
-4 0 -6 27 -10 60 -10 33 0 60 4 60 9 0 5 -8 8 -17 7 -16 -1 -18 8 -17 62 1
44 6 68 18 80 15 15 16 15 16 -1 0 -10 8 -17 19 -17 24 0 33 13 25 34 -8 21
-43 20 -66 -1 -17 -15 -18 -15 -18 0 0 13 -9 17 -42 16 -24 -1 -35 -3 -25 -6z"/>
<path d="M1106 3597 c-21 -15 -18 -52 4 -52 8 0 17 11 20 25 4 18 14 26 33 28
25 3 27 0 27 -31 0 -32 -3 -35 -41 -43 -53 -11 -87 -51 -70 -82 16 -29 46 -36
83 -18 29 15 33 15 49 0 20 -18 54 -12 63 12 4 10 0 14 -12 12 -15 -3 -17 7
-20 72 -2 44 -8 78 -15 82 -20 13 -102 9 -121 -5z m71 -145 c-23 -22 -49 -8
-45 25 2 19 10 29 28 33 21 5 26 2 28 -18 2 -14 -3 -31 -11 -40z"/>
<path d="M125 3110 c-4 -6 4 -10 19 -10 l26 0 0 -145 c0 -137 -1 -145 -19
-145 -11 0 -23 -4 -26 -10 -4 -6 17 -10 55 -10 38 0 59 4 55 10 -3 6 -15 10
-26 10 -18 0 -19 8 -18 138 l0 137 45 -144 c43 -140 50 -159 58 -150 1 2 22
67 46 144 23 77 44 142 46 144 2 2 4 -57 4 -132 l0 -137 -25 0 c-14 0 -25 -4
-25 -10 0 -6 32 -10 75 -10 43 0 75 4 75 10 0 6 -9 10 -20 10 -19 0 -20 7 -20
145 0 138 1 145 20 145 11 0 20 5 20 10 0 6 -25 10 -55 10 l-54 0 -31 -97
c-16 -54 -30 -104 -30 -112 0 -32 -16 5 -46 102 l-30 102 -56 3 c-32 2 -59 -2
-63 -8z"/>
<path d="M1060 3110 c0 -5 7 -10 15 -10 13 0 15 -23 15 -145 0 -122 -2 -145
-15 -145 -8 0 -15 -4 -15 -10 0 -5 25 -10 55 -10 30 0 55 5 55 10 0 6 -7 10
-16 10 -14 0 -16 9 -11 61 6 67 32 107 61 96 23 -9 24 -157 1 -157 -8 0 -15
-4 -15 -10 0 -5 25 -10 55 -10 30 0 55 5 55 10 0 6 -7 10 -15 10 -12 0 -15 14
-15 68 0 42 -5 75 -14 87 -17 24 -69 24 -96 0 -20 -18 -20 -18 -20 68 l0 87
-40 0 c-22 0 -40 -4 -40 -10z"/>
<path d="M1530 3110 c0 -5 7 -10 15 -10 13 0 15 -23 15 -145 0 -122 -2 -145
-15 -145 -8 0 -15 -4 -15 -10 0 -5 25 -10 55 -10 30 0 55 5 55 10 0 6 -7 10
-15 10 -13 0 -15 24 -15 155 l0 155 -40 0 c-22 0 -40 -4 -40 -10z"/>
<path d="M1660 3110 c0 -5 7 -10 15 -10 13 0 15 -23 15 -145 0 -122 -2 -145
-15 -145 -8 0 -15 -4 -15 -10 0 -6 27 -10 61 -10 37 0 58 4 54 10 -3 6 -13 10
-21 10 -12 0 -14 27 -14 155 l0 155 -40 0 c-22 0 -40 -4 -40 -10z"/>
<path d="M563 3084 c-3 -8 -1 -20 5 -26 16 -16 42 -2 42 22 0 24 -38 28 -47 4z"/>
<path d="M718 3033 c-11 -3 -18 -14 -18 -28 0 -17 -7 -25 -22 -28 l-23 -4 23
-2 c21 -1 22 -5 22 -79 0 -47 5 -83 12 -90 18 -18 73 -14 91 6 24 26 21 39 -3
17 -36 -33 -50 -13 -50 69 l0 75 33 4 32 4 -32 1 c-30 2 -33 5 -33 32 0 17 -3
29 -7 29 -5 -1 -16 -3 -25 -6z"/>
<path d="M560 2980 c-19 -4 -27 -8 -17 -9 15 -1 17 -12 17 -81 0 -64 -3 -80
-15 -80 -8 0 -15 -4 -15 -10 0 -5 25 -10 55 -10 30 0 55 5 55 10 0 6 -7 10
-15 10 -12 0 -15 17 -15 90 0 50 -3 89 -7 89 -5 -1 -24 -5 -43 -9z"/>
<path d="M920 2983 c-30 -11 -60 -47 -66 -78 -17 -91 95 -158 153 -91 12 15
23 32 23 39 0 7 -12 -3 -26 -20 -26 -34 -60 -43 -82 -21 -12 12 -17 114 -6
142 4 10 18 16 36 16 25 0 29 -3 25 -19 -6 -26 7 -45 27 -38 23 9 20 43 -6 61
-23 16 -50 19 -78 9z"/>
<path d="M1381 2976 c-55 -30 -67 -106 -25 -156 24 -27 32 -31 72 -28 35 2 49
9 65 30 12 15 17 31 12 35 -4 5 -10 2 -13 -6 -10 -29 -43 -52 -70 -49 -25 3
-27 7 -30 51 l-3 47 61 0 c59 0 61 1 55 23 -9 30 -52 67 -78 67 -12 -1 -33 -7
-46 -14z m69 -36 c0 -27 -3 -30 -30 -30 -25 0 -30 4 -30 23 0 30 7 37 37 37
19 0 23 -5 23 -30z"/>
<path d="M163 2510 c-63 -26 -56 -155 11 -179 23 -9 76 5 76 20 0 12 -17 11
-25 -1 -10 -17 -51 -11 -70 10 -24 27 -24 94 1 121 15 17 26 20 59 15 37 -6
39 -5 21 9 -22 17 -40 18 -73 5z"/>
<path d="M293 2513 c-9 -3 -13 -32 -13 -94 l0 -89 58 2 c56 2 56 2 10 5 l-48
4 0 39 c0 37 1 39 38 43 l37 4 -37 1 c-36 2 -38 4 -38 37 0 35 0 35 46 35 27
0 43 4 39 10 -6 10 -70 13 -92 3z"/>
<path d="M445 2495 c-33 -32 -36 -114 -5 -145 50 -50 130 -9 130 66 0 64 -33
103 -88 104 -7 0 -24 -11 -37 -25z m87 -12 c23 -20 24 -90 2 -121 -30 -44 -87
-19 -100 45 -14 69 50 119 98 76z"/>
<path d="M905 1835 c3 -21 -1 -25 -24 -25 -35 0 -61 -28 -61 -67 0 -39 27 -63
68 -60 l32 2 0 88 c0 48 -4 87 -9 87 -4 0 -7 -11 -6 -25z m-3 -80 c4 -38 -6
-55 -33 -55 -28 0 -40 55 -17 78 24 24 46 14 50 -23z"/>
<path d="M1090 1776 c0 -49 4 -88 11 -91 6 -4 11 -5 12 -4 7 13 -6 179 -14
179 -5 0 -9 -38 -9 -84z"/>
<path d="M1540 1832 c0 -26 -3 -28 -29 -24 -21 3 -33 -2 -45 -19 -37 -54 -7
-112 55 -105 l34 3 3 87 c2 55 -1 86 -8 86 -5 0 -10 -13 -10 -28z m-5 -81 c0
-41 -25 -62 -49 -42 -33 27 -12 85 29 79 16 -2 20 -11 20 -37z"/>
<path d="M128 1771 c15 -44 32 -82 37 -83 11 -3 69 152 60 160 -10 10 -23 -13
-40 -73 l-18 -60 -21 64 c-12 36 -27 66 -34 69 -6 2 0 -31 16 -77z"/>
<path d="M542 1833 c-20 -41 -54 -144 -49 -149 3 -3 13 8 22 25 22 43 62 43
76 1 6 -16 15 -30 21 -30 6 0 8 6 6 13 -3 6 -15 42 -27 79 -25 74 -35 88 -49
61z m28 -60 c0 -7 -7 -13 -15 -13 -16 0 -19 9 -9 35 5 13 8 14 15 3 5 -7 9
-19 9 -25z"/>
<path d="M1260 1765 l0 -85 45 0 c25 0 45 5 45 10 0 6 -16 10 -35 10 l-35 0 0
75 c0 43 -4 75 -10 75 -6 0 -10 -35 -10 -85z"/>
<path d="M1373 1815 c-6 -14 -7 -25 -2 -25 5 0 9 -20 9 -44 0 -49 19 -73 47
-60 16 7 15 8 -4 11 -20 4 -23 11 -23 48 0 37 3 44 23 48 l22 4 -22 8 c-13 4
-23 14 -23 21 0 22 -14 16 -27 -11z"/>
<path d="M263 1803 c-25 -10 -12 -22 17 -16 23 4 30 2 30 -9 0 -9 -13 -18 -29
-21 -33 -7 -49 -40 -30 -63 7 -9 24 -13 48 -10 l36 3 0 52 c-1 63 -24 84 -72
64z m45 -89 c-17 -17 -48 -13 -48 6 0 15 43 30 55 19 6 -6 3 -15 -7 -25z"/>
<path d="M374 1801 c-9 -9 -4 -110 6 -116 6 -4 10 11 10 38 0 47 19 74 45 63
11 -4 15 -20 15 -56 0 -32 4 -49 10 -45 15 9 12 101 -3 114 -12 10 -73 11 -83
2z"/>
<path d="M640 1749 c0 -71 18 -89 22 -22 2 38 8 50 26 59 27 13 19 22 -20 22
-27 0 -28 -2 -28 -59z"/>
<path d="M727 1804 c-18 -18 -6 -52 23 -64 39 -16 33 -35 -9 -33 -26 1 -30 -1
-20 -13 14 -17 51 -18 67 -2 22 22 14 48 -18 59 -38 14 -42 44 -5 36 16 -3 24
0 22 7 -4 13 -49 20 -60 10z"/>
<path d="M977 1792 c-23 -25 -21 -75 2 -96 21 -19 62 -18 68 1 3 7 -3 9 -16 6
-21 -5 -51 11 -51 28 0 5 18 9 40 9 33 0 40 3 40 19 0 24 -26 51 -49 51 -10 0
-25 -8 -34 -18z m61 -19 c2 -9 -7 -13 -27 -13 -30 0 -39 9 -24 24 11 10 46 3
51 -11z"/>
<path d="M1152 1693 c1 -10 -1 -24 -5 -30 -11 -18 8 -16 23 2 13 16 7 45 -10
45 -6 0 -10 -8 -8 -17z"/>
<path d="M1597 1704 c-8 -8 1 -24 14 -24 5 0 9 7 9 15 0 15 -12 20 -23 9z"/>
<path d="M2280 1446 c0 -47 4 -87 9 -90 12 -8 17 28 13 107 -5 96 -22 83 -22
-17z"/>
<path d="M647 1514 c-4 -4 -7 -43 -7 -88 0 -58 3 -77 11 -69 6 6 10 33 8 61
-4 57 -1 57 22 0 8 -22 19 -39 24 -39 5 0 16 17 24 39 23 57 26 57 22 0 -2
-28 2 -55 8 -61 8 -8 11 11 11 70 0 45 -4 84 -9 88 -6 3 -20 -23 -32 -57 l-23
-62 -13 35 c-27 68 -39 90 -46 83z"/>
<path d="M930 1510 c0 -5 5 -10 10 -10 6 0 10 5 10 10 0 6 -4 10 -10 10 -5 0
-10 -4 -10 -10z"/>
<path d="M1182 1508 c-25 -25 -14 -57 28 -78 22 -11 40 -27 40 -35 0 -22 -36
-38 -59 -25 -29 15 -39 12 -17 -5 28 -21 62 -18 80 7 20 28 6 53 -40 75 -47
23 -42 48 9 47 30 -1 35 1 26 12 -14 17 -51 18 -67 2z"/>
<path d="M1476 1490 c-6 -30 -2 -124 5 -140 1 -3 5 26 8 63 l6 69 38 -66 c22
-36 43 -63 48 -60 12 7 12 154 -1 154 -6 0 -10 -28 -10 -62 l0 -63 -35 55
c-18 30 -38 62 -43 70 -8 12 -11 7 -16 -20z"/>
<path d="M1951 1512 c-1 -7 8 -30 19 -52 11 -22 20 -55 20 -75 0 -22 4 -34 10
-30 6 3 10 23 10 43 0 20 9 52 21 71 11 18 18 38 16 45 -3 6 -13 -8 -23 -31
-11 -24 -21 -43 -25 -43 -3 0 -15 19 -26 43 -12 23 -22 36 -22 29z"/>
<path d="M2507 1513 c-11 -11 -8 -165 3 -158 6 3 10 34 10 68 l1 62 33 -58
c53 -93 56 -93 54 9 l-2 89 -5 -70 -6 -70 -29 50 c-42 73 -52 86 -59 78z"/>
<path d="M2640 1512 c0 -7 9 -30 20 -52 11 -22 20 -55 20 -75 0 -20 4 -34 9
-31 4 3 6 16 4 29 -3 14 6 46 22 77 14 28 24 54 21 57 -2 3 -14 -14 -27 -38
l-21 -43 -24 44 c-13 25 -23 39 -24 32z"/>
<path d="M126 1494 c-3 -9 -6 -26 -6 -39 0 -20 5 -23 33 -21 27 1 32 -3 35
-25 4 -34 -20 -54 -47 -40 -28 15 -36 14 -21 -4 17 -20 53 -19 73 3 32 36 15
82 -30 82 -18 0 -23 6 -23 24 0 20 6 25 33 29 l32 4 -36 1 c-25 2 -39 -3 -43
-14z"/>
<path d="M250 1495 c-23 -27 -24 -98 -3 -124 40 -49 103 3 73 59 -9 17 -19 21
-41 18 -32 -5 -37 7 -15 37 8 12 20 16 35 12 11 -3 21 -1 21 4 0 15 -57 10
-70 -6z m44 -61 c21 -8 21 -60 0 -68 -34 -13 -59 35 -32 62 14 14 12 14 32 6z"/>
<path d="M383 1503 c32 -4 37 -7 31 -21 -33 -78 -45 -140 -24 -127 6 3 10 18
10 33 0 15 9 47 20 71 11 24 20 45 20 47 0 2 -21 3 -47 2 -45 -1 -46 -2 -10
-5z"/>
<path d="M479 1494 c-10 -13 -10 -19 0 -36 10 -16 10 -23 -3 -37 -21 -23 -20
-34 2 -54 42 -38 94 -8 75 42 -6 18 -7 35 -1 45 23 40 -42 77 -73 40z m59 -18
c5 -24 -10 -38 -31 -30 -17 6 -23 35 -10 48 12 12 38 1 41 -18z m-4 -62 c20
-19 20 -28 1 -44 -27 -23 -65 10 -51 45 7 19 30 19 50 -1z"/>
<path d="M1301 1493 c-1 -13 -7 -23 -13 -23 -10 0 -10 -2 -1 -8 6 -4 13 -30
15 -57 3 -43 6 -50 26 -53 12 -2 22 2 22 8 0 6 -5 8 -11 4 -16 -10 -29 15 -29
59 0 32 3 37 23 38 20 0 20 1 3 8 -11 4 -23 16 -27 27 -7 17 -8 17 -8 -3z"/>
<path d="M2812 1498 c-36 -36 6 -99 51 -76 13 7 17 5 17 -10 0 -28 -32 -52
-60 -46 -20 5 -22 3 -10 -5 42 -30 83 7 83 74 0 24 -5 51 -13 59 -15 19 -51
21 -68 4z m61 -19 c15 -24 1 -49 -27 -49 -28 0 -40 24 -25 51 12 23 37 22 52
-2z"/>
<path d="M2932 1485 c-26 -57 -4 -130 38 -130 16 0 29 9 38 25 14 28 10 93 -8
115 -20 24 -55 18 -68 -10z m56 3 c17 -17 15 -103 -3 -118 -24 -20 -45 5 -45
55 0 70 18 93 48 63z"/>
<path d="M3047 1503 c-15 -14 -6 -23 12 -12 10 7 26 9 35 6 26 -10 18 -51 -19
-94 -19 -23 -35 -44 -35 -47 0 -3 20 -6 45 -6 25 0 45 5 45 10 0 6 -13 10 -30
10 l-30 0 32 45 c28 39 30 48 20 70 -8 18 -19 25 -40 25 -16 0 -32 -3 -35 -7z"/>
<path d="M3180 1500 c-13 -8 -12 -10 3 -10 14 0 17 -10 17 -60 0 -47 -3 -60
-15 -60 -8 0 -15 -4 -15 -10 0 -5 18 -10 41 -10 24 0 38 4 34 10 -3 6 -13 10
-21 10 -11 0 -14 16 -14 70 0 71 -3 77 -30 60z"/>
<path d="M3280 1480 c-22 -54 1 -130 40 -130 39 0 62 76 40 130 -10 23 -19 30
-40 30 -21 0 -30 -7 -40 -30z m58 8 c17 -17 15 -103 -3 -118 -24 -20 -45 5
-45 55 0 70 18 93 48 63z"/>
<path d="M833 1469 c-32 -12 -29 -17 8 -15 43 2 47 -19 7 -30 -28 -8 -33 -14
-33 -39 0 -28 3 -30 38 -30 l37 -1 0 53 c0 58 -17 77 -57 62z m31 -96 c-23
-17 -39 -12 -39 12 0 24 48 39 54 16 2 -8 -5 -21 -15 -28z"/>
<path d="M1027 1469 c-9 -6 -22 -7 -27 -4 -6 4 -10 -17 -10 -56 0 -66 13 -76
14 -12 2 46 11 63 36 63 20 0 27 -15 33 -80 2 -22 4 -14 5 22 2 46 -2 59 -16
67 -11 6 -24 6 -35 0z"/>
<path d="M1653 1469 c-30 -11 -40 -55 -22 -88 16 -29 55 -40 73 -20 8 9 7 10
-7 6 -23 -9 -57 9 -57 28 0 11 12 15 41 15 36 0 40 3 37 21 -4 30 -37 49 -65
38z m45 -31 c3 -14 -3 -18 -27 -18 -34 0 -34 0 -25 25 8 21 48 16 52 -7z"/>
<path d="M2097 1469 c-45 -26 -40 -103 8 -115 57 -14 92 76 43 110 -26 19 -27
19 -51 5z m55 -34 c9 -19 8 -29 -6 -50 -9 -14 -21 -25 -26 -25 -16 0 -40 31
-40 54 0 47 53 63 72 21z"/>
<path d="M2240 1470 c-8 -5 -18 -6 -22 -4 -4 3 -7 -23 -6 -58 1 -56 2 -58 5
-16 3 35 10 52 25 63 24 16 22 30 -2 15z"/>
<path d="M930 1416 c0 -30 5 -58 10 -61 6 -4 10 17 10 54 0 34 -4 61 -10 61
-5 0 -10 -24 -10 -54z"/>
<path d="M1747 1418 c8 -29 17 -56 20 -61 9 -15 21 4 28 43 4 22 10 40 14 40
4 0 12 -21 19 -47 9 -31 16 -43 23 -36 13 13 39 113 29 113 -4 0 -13 -21 -20
-47 l-13 -48 -14 48 c-8 26 -18 47 -23 47 -5 0 -15 -21 -22 -47 l-14 -48 -13
48 c-8 26 -17 47 -22 47 -4 0 -1 -24 8 -52z"/>
<path d="M2330 1445 c-21 -22 -21 -25 -6 -40 9 -9 21 -26 27 -37 6 -11 13 -17
16 -14 3 3 -4 20 -16 39 -19 31 -19 34 -4 50 9 9 14 19 12 22 -3 3 -16 -6 -29
-20z"/>
<path d="M1370 1360 c0 -5 5 -10 10 -10 6 0 10 5 10 10 0 6 -4 10 -10 10 -5 0
-10 -4 -10 -10z"/>
<path d="M2395 1346 c0 -18 3 -22 13 -14 6 6 12 17 12 24 0 8 -6 14 -12 14 -7
0 -13 -11 -13 -24z"/>
<path d="M134 1165 c-18 -14 -17 -15 10 -9 19 5 31 2 37 -7 15 -24 10 -38 -31
-83 -22 -23 -37 -46 -33 -49 10 -11 93 -8 93 3 0 6 -16 10 -36 10 l-36 0 31
35 c36 42 42 89 12 105 -25 13 -24 13 -47 -5z"/>
<path d="M368 1169 c-10 -5 -18 -14 -18 -20 0 -5 8 -4 19 2 24 15 51 5 51 -19
0 -11 -16 -40 -35 -65 -19 -25 -35 -48 -35 -51 0 -3 20 -6 45 -6 51 0 62 17
13 22 l-31 3 25 30 c38 45 43 70 19 94 -24 24 -29 25 -53 10z"/>
<path d="M987 1165 c-37 -37 -27 -137 15 -151 51 -16 82 102 38 146 -24 24
-34 25 -53 5z m55 -40 c10 -40 -4 -89 -27 -93 -24 -5 -35 15 -35 64 0 66 46
88 62 29z"/>
<path d="M1216 1167 c-12 -9 -17 -23 -14 -47 3 -33 5 -35 40 -35 33 0 37 -3
32 -20 -9 -31 -33 -46 -55 -34 -11 6 -19 6 -19 0 0 -9 23 -21 41 -21 25 0 49
42 49 85 0 32 -6 51 -20 65 -23 23 -30 24 -54 7z m54 -28 c9 -15 8 -24 -1 -35
-16 -19 -45 -18 -53 2 -17 45 32 75 54 33z"/>
<path d="M1330 1160 c-23 -23 -25 -39 -7 -65 10 -12 22 -16 40 -13 20 4 27 1
27 -11 0 -29 -17 -44 -44 -39 -14 3 -26 2 -26 -3 0 -14 20 -21 44 -15 45 11
63 109 26 146 -11 11 -24 20 -30 20 -5 0 -19 -9 -30 -20z m55 -35 c0 -25 -4
-30 -25 -30 -16 0 -26 6 -28 18 -6 30 6 49 30 45 18 -2 23 -9 23 -33z"/>
<path d="M255 1160 c-3 -5 1 -10 9 -10 13 0 16 -12 16 -60 0 -53 -2 -60 -20
-60 -11 0 -20 -4 -20 -10 0 -5 18 -10 40 -10 22 0 40 5 40 10 0 6 -7 10 -15
10 -12 0 -15 14 -15 70 0 54 -3 70 -14 70 -8 0 -18 -4 -21 -10z"/>
<path d="M550 1140 c0 -41 2 -45 26 -42 27 4 47 -21 39 -49 -6 -19 -12 -21
-49 -16 -37 5 -39 4 -22 -9 41 -30 86 -6 86 47 0 30 -30 52 -57 42 -8 -3 -13
4 -13 20 0 21 5 26 33 30 31 4 31 4 -5 5 -36 2 -38 0 -38 -28z"/>
<path d="M664 1145 c-9 -36 -1 -49 32 -50 26 0 29 -4 29 -30 0 -28 -2 -30 -39
-29 -36 2 -38 0 -21 -12 10 -8 26 -14 35 -14 23 0 50 32 50 58 0 24 -43 58
-60 47 -6 -4 -10 4 -10 19 0 20 6 25 33 29 32 4 32 4 -5 5 -32 2 -39 -2 -44
-23z"/>
<path d="M785 1140 c-8 -37 -1 -50 27 -43 29 8 51 -22 37 -50 -9 -16 -18 -18
-47 -14 -34 6 -35 5 -18 -8 11 -8 27 -15 36 -15 23 0 50 32 50 58 0 24 -43 58
-60 47 -6 -4 -10 4 -10 19 0 20 6 25 33 29 l32 4 -37 1 c-33 2 -37 -1 -43 -28z"/>
<path d="M1105 1160 c-3 -5 1 -10 9 -10 13 0 16 -12 16 -60 0 -53 -2 -60 -20
-60 -11 0 -20 -4 -20 -10 0 -5 18 -10 40 -10 22 0 40 5 40 10 0 6 -7 10 -15
10 -12 0 -15 14 -15 70 0 54 -3 70 -14 70 -8 0 -18 -4 -21 -10z"/>
<path d="M473 1073 c9 -2 25 -2 35 0 9 3 1 5 -18 5 -19 0 -27 -2 -17 -5z"/>
<path d="M903 1073 c9 -2 25 -2 35 0 9 3 1 5 -18 5 -19 0 -27 -2 -17 -5z"/>
<path d="M1412 832 c-2 -29 -5 -32 -26 -26 -47 11 -81 -56 -51 -102 14 -22 22
-25 48 -20 17 3 32 8 34 10 2 2 2 41 0 87 -1 46 -4 69 -5 51z m-4 -82 c3 -23
-2 -38 -14 -47 -25 -18 -54 1 -54 35 0 34 18 54 45 50 15 -2 21 -12 23 -38z"/>
<path d="M1582 773 c2 -47 8 -88 13 -90 6 -2 9 30 7 87 -2 49 -8 90 -13 90 -6
0 -9 -35 -7 -87z"/>
<path d="M1642 773 c2 -47 8 -88 13 -90 6 -2 9 30 7 87 -2 49 -8 90 -13 90 -6
0 -9 -35 -7 -87z"/>
<path d="M1850 829 c0 -25 -3 -30 -16 -25 -9 4 -27 -1 -40 -9 -47 -30 -21
-125 30 -111 12 3 27 6 34 6 9 0 12 24 12 85 0 50 -4 85 -10 85 -5 0 -10 -14
-10 -31z m-5 -84 c0 -36 -3 -40 -27 -43 -22 -3 -29 2 -34 21 -8 35 12 69 39
65 18 -2 22 -10 22 -43z"/>
<path d="M1699 813 c-3 -50 4 -109 13 -120 12 -15 38 -17 38 -3 0 6 -6 9 -12
8 -9 -2 -14 13 -16 44 -2 38 0 47 15 51 17 4 17 5 1 6 -10 0 -18 8 -18 16 0
21 -20 19 -21 -2z"/>
<path d="M803 803 c-22 -8 -14 -19 14 -18 38 0 39 -20 1 -31 -25 -7 -34 -16
-36 -36 -4 -30 15 -40 59 -31 31 6 31 7 26 56 -5 58 -25 76 -64 60z m47 -73
c0 -21 -27 -40 -47 -33 -21 7 -15 33 10 43 33 13 37 12 37 -10z"/>
<path d="M940 801 c-8 -6 -18 -7 -22 -5 -4 3 -7 -21 -6 -53 l1 -58 6 50 c5 45
8 50 31 50 23 0 25 -4 28 -47 2 -27 8 -48 14 -48 16 0 4 100 -13 111 -17 11
-21 11 -39 0z"/>
<path d="M1044 796 c-18 -13 -17 -14 15 -13 45 3 51 -17 9 -29 -25 -7 -34 -16
-36 -36 -4 -30 15 -40 59 -31 31 6 31 7 26 56 -6 64 -32 83 -73 53z m56 -66
c0 -21 -27 -40 -47 -33 -21 7 -15 33 10 43 33 13 37 12 37 -10z"/>
<path d="M1185 800 c-4 -6 -11 -8 -16 -5 -5 4 -8 -18 -8 -52 1 -32 4 -44 6
-28 7 58 13 75 28 75 8 0 15 5 15 10 0 13 -17 13 -25 0z"/>
<path d="M1236 795 c-20 -20 -13 -36 25 -58 25 -14 29 -20 19 -32 -8 -10 -18
-11 -36 -5 -15 6 -24 6 -24 0 0 -16 49 -23 65 -10 24 20 18 47 -15 60 -37 15
-40 40 -4 40 14 0 23 4 19 10 -9 15 -31 12 -49 -5z"/>
<path d="M1482 794 c-51 -35 -13 -125 45 -108 l28 8 -30 4 c-62 8 -74 42 -15
42 36 0 40 3 40 25 0 14 -8 29 -19 35 -25 13 -22 13 -49 -6z m56 -26 c3 -15
-4 -18 -32 -18 -38 0 -44 8 -24 28 17 17 52 11 56 -10z"/>
<path d="M1970 790 c-26 -26 -26 -64 1 -91 22 -22 60 -22 67 0 3 10 0 11 -14
3 -27 -15 -54 3 -54 36 0 40 14 55 44 50 28 -6 36 6 10 16 -25 9 -33 7 -54
-14z"/>
<path d="M2088 793 c-36 -42 -26 -98 19 -109 55 -14 89 77 41 110 -29 20 -41
20 -60 -1z m63 -24 c16 -31 -3 -69 -35 -69 -24 0 -36 16 -36 49 0 41 52 55 71
20z"/>
<path d="M2235 800 c-3 -5 -12 -7 -20 -3 -12 4 -15 -6 -15 -51 0 -68 18 -75
22 -8 3 40 6 47 26 50 20 3 22 0 22 -47 0 -64 18 -67 22 -3 3 40 6 47 25 50
24 3 29 -8 36 -78 3 -23 4 -15 5 21 2 66 -16 92 -49 71 -14 -9 -25 -9 -39 -2
-23 12 -27 12 -35 0z"/>
<path d="M110 797 c0 -19 33 -107 40 -107 5 0 15 18 21 40 14 45 20 44 34 -7
6 -19 14 -35 19 -36 11 -2 39 89 33 106 -2 7 -11 -10 -19 -38 l-15 -50 -13 48
c-15 55 -31 56 -43 4 -12 -48 -24 -47 -32 3 -4 22 -11 40 -16 40 -5 0 -9 -1
-9 -3z"/>
<path d="M280 792 c0 -19 32 -102 40 -102 5 0 15 19 23 43 l14 42 13 -40 c19
-62 27 -62 45 -1 9 32 14 60 12 63 -3 3 -12 -17 -20 -43 l-15 -49 -12 48 c-14
55 -31 57 -44 4 -12 -46 -22 -47 -30 -2 -6 31 -26 60 -26 37z"/>
<path d="M459 745 c9 -31 20 -57 25 -58 6 -1 14 14 19 33 13 54 23 55 36 5 13
-53 26 -51 41 6 6 22 14 47 17 55 3 8 1 14 -4 14 -5 0 -15 -21 -22 -47 l-14
-48 -11 44 c-6 25 -16 46 -22 48 -6 2 -17 -18 -25 -44 l-13 -48 -14 48 c-7 26
-17 47 -22 47 -4 0 -1 -25 9 -55z"/>
<path d="M681 748 c11 -29 24 -57 29 -61 4 -5 18 17 29 48 12 32 20 60 17 62
-5 6 -36 -63 -36 -80 0 -20 -17 7 -30 46 -6 20 -16 37 -21 37 -5 0 1 -24 12
-52z"/>
<path d="M626 701 c-4 -5 -2 -12 3 -15 5 -4 12 -2 15 3 4 5 2 12 -3 15 -5 4
-12 2 -15 -3z"/>
<path d="M1906 701 c-4 -5 -2 -12 3 -15 5 -4 12 -2 15 3 4 5 2 12 -3 15 -5 4
-12 2 -15 -3z"/>
<path d="M470 500 c0 -27 -3 -30 -24 -24 -52 13 -89 -72 -48 -109 10 -10 32
-16 50 -14 l32 2 0 88 c0 48 -2 87 -5 87 -3 0 -5 -14 -5 -30z m-2 -80 c3 -23
-2 -38 -14 -47 -23 -17 -54 1 -54 32 0 42 11 56 39 53 22 -2 27 -9 29 -38z"/>
<path d="M1700 500 c0 -27 -3 -30 -24 -24 -18 4 -28 -1 -45 -22 -26 -33 -27
-55 -3 -84 15 -18 24 -21 50 -15 l32 7 0 84 c0 46 -2 84 -5 84 -3 0 -5 -14 -5
-30z m-2 -80 c3 -23 -2 -38 -14 -47 -25 -18 -54 1 -54 35 0 34 18 54 45 50 15
-2 21 -12 23 -38z"/>
<path d="M1881 443 c0 -51 3 -93 7 -93 4 0 6 33 4 73 -5 113 -9 121 -11 20z"/>
<path d="M1932 443 c2 -47 8 -88 13 -90 6 -2 9 30 7 87 -2 49 -8 90 -13 90 -6
0 -9 -35 -7 -87z"/>
<path d="M2150 500 c0 -27 -3 -30 -24 -24 -52 13 -89 -72 -48 -109 10 -10 32
-16 50 -14 l32 2 0 88 c0 48 -2 87 -5 87 -3 0 -5 -14 -5 -30z m-2 -80 c3 -23
-2 -38 -14 -47 -27 -19 -54 1 -54 41 0 40 7 48 40 44 21 -2 26 -9 28 -38z"/>
<path d="M120 510 c0 -5 5 -10 10 -10 6 0 10 5 10 10 0 6 -4 10 -10 10 -5 0
-10 -4 -10 -10z"/>
<path d="M801 484 c-38 -32 -49 -80 -27 -122 8 -16 23 -32 31 -36 25 -9 73 -7
80 3 3 6 -9 8 -29 4 -75 -12 -107 89 -45 141 33 28 50 32 80 15 42 -22 44
-109 3 -109 -14 0 -15 7 -11 38 6 34 4 38 -17 40 -30 2 -59 -29 -54 -60 3 -20
9 -23 48 -25 53 -2 80 17 80 59 0 38 -40 78 -79 78 -17 0 -42 -11 -60 -26z
m69 -63 c0 -23 -25 -45 -40 -36 -6 4 -8 16 -4 28 12 39 44 45 44 8z"/>
<path d="M1993 485 c-6 -14 -7 -25 -3 -25 5 0 10 -24 12 -52 2 -41 7 -54 21
-56 9 -2 17 1 17 7 0 6 -6 10 -12 9 -9 -2 -14 13 -16 44 -2 38 0 47 15 51 15
4 16 5 1 6 -9 0 -18 10 -20 21 -3 18 -4 18 -15 -5z"/>
<path d="M190 460 c-11 -11 -20 -31 -20 -45 0 -30 32 -65 59 -65 24 0 51 36
51 67 0 26 -32 63 -55 63 -8 0 -24 -9 -35 -20z m68 -40 c3 -23 -2 -38 -14 -47
-23 -17 -54 1 -54 32 0 42 11 56 39 53 22 -2 27 -9 29 -38z"/>
<path d="M340 470 c-8 -5 -18 -6 -22 -4 -4 3 -7 -23 -6 -58 l1 -63 6 50 c5 39
11 52 29 61 13 7 20 14 15 17 -5 3 -15 2 -23 -3z"/>
<path d="M534 466 c-18 -13 -17 -14 15 -13 45 3 51 -17 9 -29 -23 -7 -34 -16
-36 -33 -5 -32 11 -44 47 -36 29 6 31 9 31 54 0 66 -24 87 -66 57z m56 -66 c0
-21 -27 -40 -47 -33 -21 7 -15 33 10 43 33 13 37 12 37 -10z"/>
<path d="M670 471 c-8 -6 -18 -7 -22 -5 -4 3 -7 -23 -6 -58 1 -53 2 -56 5 -18
5 50 17 70 44 70 18 0 19 -4 32 -90 3 -14 5 1 6 32 1 47 -2 59 -18 68 -23 12
-22 12 -41 1z"/>
<path d="M1098 473 c-29 -7 -20 -20 11 -15 19 3 30 -1 34 -12 4 -11 1 -16 -12
-16 -10 0 -29 -9 -42 -19 -33 -28 -16 -56 35 -56 l36 -1 0 53 c0 41 -4 54 -19
63 -11 5 -21 9 -23 9 -2 -1 -11 -3 -20 -6z m52 -78 c0 -17 -36 -38 -50 -30
-18 11 -11 35 13 44 26 10 37 6 37 -14z"/>
<path d="M1230 471 c-8 -6 -18 -7 -22 -5 -4 3 -7 -23 -6 -58 2 -63 2 -63 5
-11 3 41 8 53 23 58 31 10 40 -2 40 -51 0 -26 5 -44 11 -44 16 0 5 100 -12
111 -17 11 -21 11 -39 0z"/>
<path d="M1348 473 c-30 -8 -20 -20 12 -15 40 6 40 -20 0 -35 -59 -22 -47 -75
16 -70 34 2 34 2 34 54 0 41 -4 54 -19 63 -11 5 -21 9 -23 9 -2 -1 -11 -3 -20
-6z m52 -79 c0 -15 -39 -35 -52 -27 -16 9 -7 34 15 42 26 10 37 6 37 -15z"/>
<path d="M1480 470 c-8 -5 -18 -6 -22 -4 -4 3 -7 -23 -6 -58 l1 -63 6 50 c5
39 11 52 29 61 13 7 20 14 15 17 -5 3 -15 2 -23 -3z"/>
<path d="M1530 465 c-16 -20 -6 -43 25 -57 27 -12 33 -33 13 -41 -7 -2 -21 0
-32 5 -14 8 -17 7 -14 -4 6 -19 52 -22 67 -4 17 20 9 40 -23 60 -36 22 -36 30
-1 36 25 5 27 7 12 13 -26 10 -33 9 -47 -8z"/>
<path d="M1772 464 c-28 -19 -30 -74 -4 -97 21 -20 41 -21 62 -6 12 8 10 10
-10 5 -15 -3 -31 1 -42 11 -27 25 -22 33 22 33 36 0 40 3 40 25 0 14 -8 29
-19 35 -25 13 -22 13 -49 -6z m56 -26 c3 -15 -4 -18 -32 -18 -38 0 -44 8 -24
28 17 17 52 11 56 -10z"/>
<path d="M2272 464 c-15 -10 -22 -25 -22 -49 0 -53 42 -81 80 -54 12 8 10 10
-10 5 -15 -3 -31 1 -42 11 -36 32 -12 92 32 80 24 -6 27 8 4 17 -20 8 -16 9
-42 -10z"/>
<path d="M2387 469 c-43 -25 -37 -104 9 -115 56 -14 90 77 42 110 -26 19 -27
19 -51 5z m53 -29 c23 -43 -23 -96 -54 -64 -19 18 -21 55 -4 72 18 18 46 14
58 -8z"/>
<path d="M2530 471 c-8 -6 -18 -7 -22 -5 -4 3 -7 -23 -6 -58 2 -63 2 -63 5
-11 3 41 8 53 23 58 31 10 40 -2 42 -53 l1 -47 6 50 c5 42 10 51 28 53 24 3
29 -8 36 -78 2 -22 4 -14 5 22 2 49 -1 59 -19 68 -15 9 -24 8 -35 -1 -11 -9
-18 -9 -26 -1 -14 14 -19 15 -38 3z"/>
<path d="M120 391 c0 -54 -4 -81 -12 -85 -7 -3 -4 -5 7 -3 18 2 20 11 23 85 2
52 -1 82 -8 82 -6 0 -10 -31 -10 -79z"/>
<path d="M971 418 c11 -29 24 -57 29 -61 4 -5 18 17 29 48 12 32 20 60 17 62
-5 6 -36 -63 -36 -80 0 -20 -17 7 -30 46 -6 20 -16 37 -21 37 -5 0 1 -24 12
-52z"/>
<path d="M2200 360 c0 -5 5 -10 10 -10 6 0 10 5 10 10 0 6 -4 10 -10 10 -5 0
-10 -4 -10 -10z"/>
</g>
</svg>
